<?xml version="1.0" standalone="no"?>
<!DOCTYPE svg PUBLIC "-//W3C//DTD SVG 20010904//EN"
 "http://www.w3.org/TR/2001/REC-SVG-20010904/DTD/svg10.dtd">
<svg version="1.0" xmlns="http://www.w3.org/2000/svg"
 width="175.000000pt" height="175.000000pt" viewBox="0 0 175.000000 175.000000"
 preserveAspectRatio="xMidYMid meet">
<metadata>
Created by potrace 1.11, written by Peter Selinger 2001-2013
</metadata>
<g transform="translate(0.000000,175.000000) scale(0.100000,-0.100000)"
fill="#000000" stroke="none">
<path d="M0 875 l0 -875 875 0 875 0 0 875 0 875 -875 0 -875 0 0 -875z m730
376 l0 -200 51 34 c78 53 139 65 223 44 119 -30 186 -156 186 -352 0 -107 -21
-187 -69 -256 -88 -130 -246 -158 -368 -66 l-33 26 -6 -30 c-6 -29 -9 -31 -50
-31 l-44 0 0 515 0 515 55 0 55 0 0 -199z"/>
<path d="M842 1025 c-19 -8 -51 -29 -73 -46 l-39 -31 0 -187 c0 -211 -3 -203
80 -240 84 -38 158 -21 209 49 40 55 54 127 49 241 -5 107 -30 176 -73 205
-36 23 -112 28 -153 9z"/>
</g>
</svg>
